<?xml version="1.0" ?><svg id="Layer_1" style="enable-background:new 0 0 512 512;" version="1.1" viewBox="0 0 512 512" xml:space="preserve" xmlns="http://www.w3.org/2000/svg" xmlns:xlink="http://www.w3.org/1999/xlink"><style type="text/css">
	.st0{fill:#25D366;}
	.st1{fill:#FFFFFF;}
	.st2{fill:#FF0000;}
	.st3{fill:#3D5A98;}
	.st4{fill:url(#SVGID_1_);}
	.st5{fill:url(#SVGID_2_);}
	.st6{fill:#55ADEE;}
	.st7{fill:#1E96C8;}
	.st8{fill:#A9C9DD;}
	.st9{fill:#C8DAEA;}
	.st10{fill:none;}
	.st11{fill:#4787F3;}
	.st12{fill:#DC483C;}
	.st13{fill:#FFCE43;}
	.st14{fill:#149F5C;}
	.st15{fill:#CE1E5B;}
	.st16{fill:#72C5CD;}
	.st17{fill:#DFA22F;}
	.st18{fill:#3CB187;}
	.st19{fill:#248C73;}
	.st20{fill:#392538;}
	.st21{fill:#BB242A;}
	.st22{fill:none;stroke:#3CB187;stroke-miterlimit:10;}
	.st23{fill:#009A57;}
	.st24{fill:#FCCD37;}
	.st25{fill:#2771F0;}
</style><path class="st6" d="M471.5,113.8c-10.8,2.9-20.7,4.6-29.2,5.6c7-3.9,18.9-11.6,29.1-25.4c8.4-11.3,12.4-22.3,14.4-29.5  c-8.5,4.9-18.6,10-30.4,14.5c-12.1,4.7-23.3,7.8-33,9.9c-5.9-6.3-17.3-17-35-24.2c-16.5-6.7-31.1-7.3-39.5-7  c-5.6,0.1-47.8,1.3-76.5,37.3c-29.6,37.2-20,80.3-18.7,85.4c-23.9-0.9-67.7-5.6-115.6-30.3c-47.2-24.4-76.9-55.8-91.4-74.6  c-4,6.4-19.4,33-12.6,69.1c7.6,40.2,37.6,60.7,43,64.2c-5.9-0.2-13.3-1-21.7-3.1c-9.7-2.5-17.5-6.2-23.1-9.4  c-0.1,9.6,1,33.1,16.3,56.5c21.6,32.9,55.4,41.5,63.1,43.2c-5.7,1.5-13.1,2.9-21.7,3.2c-8.9,0.3-16.6-0.6-22.5-1.7  c2.5,8.3,10.3,30.7,32.7,48.5c24.8,19.6,51.4,20.9,59.7,21c-12.7,10.1-33.3,24.1-61.8,33.3C61.3,412,30.5,410.7,13,408.7  c21,13.7,75.8,45.4,152.7,45.6c77.7,0.2,133.1-32,153.9-45.6c21.7-14.2,65.7-47.1,97-106.5c33-62.5,34-120.5,32.9-146.4  c8.8-6.6,18.9-15.1,29.1-26c8.4-9,15.1-17.8,20.5-25.7C491.2,107.5,482,110.9,471.5,113.8z"/></svg>